<?xml version="1.0" standalone="no"?>
<!DOCTYPE svg PUBLIC "-//W3C//DTD SVG 20010904//EN"
 "http://www.w3.org/TR/2001/REC-SVG-20010904/DTD/svg10.dtd">
<svg version="1.0" xmlns="http://www.w3.org/2000/svg"
 width="770.000000pt" height="770.000000pt" viewBox="0 0 770.000000 770.000000"
 preserveAspectRatio="xMidYMid meet">
<metadata>
Created by potrace 1.11, written by Peter Selinger 2001-2013
</metadata>
<g transform="translate(0.000000,770.000000) scale(0.100000,-0.100000)"
fill="#000000" stroke="none">
<path d="M3639 7686 c-2 -2 -44 -6 -94 -10 -81 -5 -228 -21 -280 -30 -132 -23
-268 -52 -420 -90 -246 -61 -580 -198 -860 -351 -160 -87 -444 -279 -546 -369
-19 -17 -57 -49 -84 -71 -27 -22 -82 -71 -123 -110 -565 -532 -946 -1190
-1121 -1935 -16 -69 -32 -143 -35 -165 -4 -23 -9 -52 -11 -65 -12 -59 -32
-211 -42 -325 -15 -171 -7 -679 12 -755 2 -8 7 -44 10 -80 4 -36 13 -99 21
-140 8 -41 17 -91 20 -110 18 -117 107 -422 172 -595 163 -432 446 -897 737
-1210 550 -591 1172 -968 1910 -1155 82 -21 166 -41 185 -44 19 -3 46 -8 60
-11 37 -8 66 -12 155 -25 44 -6 94 -13 110 -15 184 -27 684 -27 895 1 46 5
264 40 310 49 59 11 244 59 352 91 440 131 883 362 1260 657 133 105 174 142
353 321 249 250 463 532 627 826 79 143 105 196 193 395 76 173 188 536 218
711 3 16 10 52 15 79 6 28 15 86 21 130 29 212 36 317 36 570 -1 239 -8 358
-30 512 -3 18 -7 50 -10 70 -5 35 -27 150 -40 213 -2 14 -8 39 -11 55 -24 115
-131 461 -174 560 -10 22 -30 69 -45 105 -55 131 -161 335 -243 470 -94 153
-265 392 -348 486 -112 126 -164 181 -254 269 -109 108 -276 251 -370 320 -30
21 -57 42 -60 45 -6 7 -209 141 -285 187 -210 129 -519 270 -776 353 -104 34
-354 100 -434 115 -167 31 -298 49 -460 64 -87 8 -509 13 -516 7z"/>
</g>
</svg>
